<?xml version="1.0" encoding="utf-8"?>
<!-- Generator: Adobe Illustrator 24.1.2, SVG Export Plug-In . SVG Version: 6.00 Build 0)  -->
<svg version="1.1" id="Layer_1" xmlns="http://www.w3.org/2000/svg" xmlns:xlink="http://www.w3.org/1999/xlink" x="0px" y="0px"
	 viewBox="0 0 190 208" style="enable-background:new 0 0 190 208;" xml:space="preserve">
<style type="text/css">
	.st0{fill:none;stroke:#7b1fa2;stroke-width:7;stroke-linecap:round;stroke-miterlimit:10;}
	.st1{fill:none;stroke:#7b1fa2;stroke-width:7;stroke-miterlimit:10;}
	.st2{fill:none;stroke:#7b1fa2;stroke-width:4;stroke-miterlimit:10;}
</style>
<g id="Layer_2_1_">
	<g id="Layer_1-2">
		<path class="st0" d="M144.1,104.5c0,9.3-0.7,18.6-2,27.7c-7.3,5.7-15,10.9-23,15.6c-8,4.7-16.4,8.7-25,12.2
			c-8.6-3.5-17-7.5-25-12.2C61,143.2,53.3,138,46,132.2c-2.6-18.4-2.6-37.1,0-55.5C60.6,65.3,76.8,56,94.1,49
			c8.6,3.5,17,7.5,25,12.2c8,4.6,15.7,9.8,23,15.6C143.4,85.9,144.1,95.2,144.1,104.5z"/>
		<path class="st0" d="M46,76.8c-2.6,18.4-2.6,37.1,0,55.5c-10.3-8-19.6-17.3-27.5-27.7C4.8,86-0.1,67.6,7.5,54.5S33.4,36.4,56.3,39
			C51.2,51.1,47.8,63.8,46,76.8z"/>
		<path class="st0" d="M144.1,104.5c0,9.3-0.7,18.6-2,27.7c-7.3,5.7-15,10.9-23,15.6c-8,4.7-16.4,8.7-25,12.2
			c-8.6-3.5-17-7.5-25-12.2C61,143.2,53.3,138,46,132.2c-2.6-18.4-2.6-37.1,0-55.5C60.6,65.3,76.8,56,94.1,49
			c8.6,3.5,17,7.5,25,12.2c8,4.6,15.7,9.8,23,15.6C143.4,85.9,144.1,95.2,144.1,104.5z"/>
		<path class="st0" d="M132.4,38c-13,1.7-25.7,5-37.8,10c-17.2,7-33.4,16.3-48,27.7c1.7-13,5.2-25.7,10.2-37.7
			C66,16.9,79.6,3.5,94.7,3.5S123.3,16.9,132.4,38z"/>
		<path class="st0" d="M141.7,132.2c-1.7,13-5.2,25.7-10.3,37.8c-9.2,21.2-22.7,34.5-37.8,34.5S65,191.1,55.9,170
			c13-1.7,25.7-5,37.8-10c8.6-3.5,17-7.5,25-12.2C126.7,143.2,134.4,138,141.7,132.2z"/>
		<path class="st0" d="M181.3,155.5c-7.5,13.1-25.9,18.1-48.8,15.5c5.1-12.1,8.5-24.8,10.3-37.7c1.3-9.2,2-18.5,1.9-27.7
			c0-9.3-0.6-18.6-1.9-27.7c10.4,8,19.6,17.3,27.6,27.7C184,124,188.8,142.4,181.3,155.5z"/>
		<path class="st0" d="M93.7,160c-12.1,5-24.8,8.3-37.8,10c-22.9,2.6-41.3-2.4-48.8-15.5s-2.7-31.5,11-50
			c7.9,10.4,17.2,19.7,27.6,27.7c7.3,5.7,15,10.9,23,15.6C76.7,152.5,85,156.5,93.7,160z"/>
		<path class="st0" d="M170.3,104.5c-7.9-10.4-17.2-19.7-27.6-27.7c-7.3-5.7-15-10.9-23-15.6c-8-4.7-16.4-8.7-25-12.2
			c12.1-5,24.8-8.3,37.8-10c22.9-2.6,41.3,2.4,48.8,15.5S184,86,170.3,104.5z"/>
		<line class="st1" x1="24.3" y1="56.3" x2="24.3" y2="72.7"/>
		<line class="st1" x1="161.6" y1="56.3" x2="161.6" y2="72.7"/>
		<line class="st1" x1="94.5" y1="172.8" x2="94.5" y2="189.1"/>
		<circle class="st2" cx="24.3" cy="144.9" r="7.3"/>
		<circle class="st2" cx="161.6" cy="148.8" r="7.3"/>
		<circle class="st2" cx="94.7" cy="26.9" r="7.3"/>
		<circle class="st0" cx="93.7" cy="104.5" r="19.1"/>
	</g>
</g>
</svg>
