<svg width="16" height="16" viewBox="0 0 16 16" fill="none" xmlns="http://www.w3.org/2000/svg">
<path d="M10.56 8C10.56 8.50632 10.4099 9.00127 10.1286 9.42226C9.84727 9.84325 9.44745 10.1714 8.97967 10.3651C8.51189 10.5589 7.99716 10.6096 7.50057 10.5108C7.00398 10.412 6.54783 10.1682 6.18981 9.81019C5.83178 9.45217 5.58797 8.99602 5.48919 8.49943C5.39041 8.00284 5.44111 7.48811 5.63487 7.02033C5.82863 6.55255 6.15675 6.15273 6.57774 5.87144C6.99873 5.59014 7.49368 5.44 8 5.44C8.67831 5.44211 9.32823 5.7125 9.80786 6.19214C10.2875 6.67177 10.5579 7.32169 10.56 8V8ZM16 4.48V11.52C16 12.7082 15.528 13.8477 14.6878 14.6878C13.8477 15.528 12.7082 16 11.52 16H4.48C3.29183 16 2.15232 15.528 1.31216 14.6878C0.471999 13.8477 0 12.7082 0 11.52V4.48C0 3.29183 0.471999 2.15232 1.31216 1.31216C2.15232 0.471999 3.29183 0 4.48 0H11.52C12.7082 0 13.8477 0.471999 14.6878 1.31216C15.528 2.15232 16 3.29183 16 4.48V4.48ZM11.84 8C11.84 7.24052 11.6148 6.49809 11.1928 5.86661C10.7709 5.23513 10.1712 4.74294 9.4695 4.4523C8.76784 4.16166 7.99574 4.08562 7.25085 4.23378C6.50597 4.38195 5.82174 4.74768 5.28471 5.28471C4.74768 5.82174 4.38195 6.50597 4.23378 7.25085C4.08562 7.99574 4.16166 8.76784 4.4523 9.4695C4.74294 10.1712 5.23513 10.7709 5.86661 11.1928C6.49809 11.6148 7.24052 11.84 8 11.84C9.01843 11.84 9.99515 11.4354 10.7153 10.7153C11.4354 9.99515 11.84 9.01843 11.84 8ZM13.12 3.84C13.12 3.65013 13.0637 3.46452 12.9582 3.30665C12.8527 3.14878 12.7028 3.02574 12.5274 2.95308C12.352 2.88042 12.1589 2.8614 11.9727 2.89845C11.7865 2.93549 11.6154 3.02692 11.4812 3.16118C11.3469 3.29544 11.2555 3.46649 11.2184 3.65271C11.1814 3.83893 11.2004 4.03196 11.2731 4.20738C11.3457 4.38279 11.4688 4.53272 11.6267 4.63821C11.7845 4.7437 11.9701 4.8 12.16 4.8C12.4146 4.8 12.6588 4.69886 12.8388 4.51882C13.0189 4.33879 13.12 4.09461 13.12 3.84Z" fill="#282828"/>
</svg>
